# xmcd
#
# Track frame offsets:
#	150
#	13181
#	27970
#	39398
#	54163
#	73426
#	86364
#	98317
#	111918
#	123416
#	139132
#	153991
#	168586
#	179589
#	196557
#	215148
#	229164
#	240235
#	252525
#
# Disc length: 3554 seconds
#
# Revision: 0
# Processed by: cddbd v1.5.2PL0 Copyright (c) Steve Scherf et al.
# Submitted via: dBpowerAMP V4.0
#
DISCID=010de013
DTITLE=Marita - 19 Country Gunstelinge
DYEAR=2001
DGENRE=Country
TTITLE0=Except for Monday's
TTITLE1=Don't tell me what to do
TTITLE2=Help me make it through the night
TTITLE3=Altyd is
TTITLE4=Wentelbaan van liefde
TTITLE5=Blue
TTITLE6=Do you wanna make something of it
TTITLE7=Jou hart is weer myne
TTITLE8=Daar is niks woos ware liefde
TTITLE9=Five minutes
TTITLE10=Queen of hearts
TTITLE11=Ek is lief vir die wêreld
TTITLE12=Its so easy
TTITLE13=Place in my heart
TTITLE14=I hope you dance
TTITLE15=Bly
TTITLE16=Ek verlang nog altyd
TTITLE17=9 to 5
TTITLE18=Crazy
EXTD=
EXTT0=
EXTT1=
EXTT2=
EXTT3=
EXTT4=
EXTT5=
EXTT6=
EXTT7=
EXTT8=
EXTT9=
EXTT10=
EXTT11=
EXTT12=
EXTT13=
EXTT14=
EXTT15=
EXTT16=
EXTT17=
EXTT18=
PLAYORDER=
